<?xml version="1.0" encoding="utf-8"?>
<!-- Generator: Adobe Illustrator 17.1.0, SVG Export Plug-In . SVG Version: 6.00 Build 0)  -->
<!DOCTYPE svg PUBLIC "-//W3C//DTD SVG 1.1//EN" "http://www.w3.org/Graphics/SVG/1.1/DTD/svg11.dtd">
<svg version="1.1" id="Layer_1" xmlns="http://www.w3.org/2000/svg" xmlns:xlink="http://www.w3.org/1999/xlink" x="0px" y="0px"
	 viewBox="0 0 512 201.333" enable-background="new 0 0 512 201.333" xml:space="preserve">
<g>
	<path fill="#189C9B" d="M12.589,64.766c0-6.213,4.756-11.152,10.97-11.152c6.213,0,11.148,4.938,11.148,11.152v4.569
		c6.217-8.592,14.624-16.633,29.432-16.633c13.892,0,23.759,6.762,28.877,16.997c7.682-10.235,17.916-16.997,32.537-16.997
		c21.023,0,33.815,13.343,33.815,36.923v51.545c0,6.218-4.751,10.971-10.965,10.971c-6.213,0-11.152-4.753-11.152-10.971V96.389
		c0-15.354-7.127-23.58-19.56-23.58c-12.061,0-20.655,8.41-20.655,23.947v44.414c0,6.218-4.934,10.971-10.965,10.971
		c-6.214,0-11.151-4.753-11.151-10.971V96.207c0-14.988-7.311-23.398-19.56-23.398c-12.245,0-20.654,9.142-20.654,23.947v44.414
		c0,6.218-4.935,10.971-11.148,10.971c-6.03,0-10.97-4.753-10.97-10.971V64.766z"/>
	<path fill="#189C9B" d="M178.896,27.757c0-6.631,5.524-10.87,12.712-10.87c7.185,0,12.712,4.239,12.712,10.87v1.108
		c0,6.633-5.527,11.056-12.712,11.056c-7.188,0-12.712-4.423-12.712-11.056V27.757z M180.552,64.059
		c0-6.264,4.792-11.241,11.057-11.241c6.264,0,11.238,4.977,11.238,11.241v77.023c0,6.266-4.974,11.059-11.238,11.059
		c-6.08,0-11.057-4.794-11.057-11.059V64.059z"/>
	<g>
		<path fill="#189C9B" d="M224.014,64.965c0-6.199,4.744-11.126,10.944-11.126c6.197,0,11.122,4.927,11.122,11.126v4.559
			c6.207-8.572,14.59-16.594,29.366-16.594c13.858,0,23.704,6.746,28.811,16.957c7.663-10.21,17.876-16.957,32.463-16.957
			c20.972,0,33.736,13.312,33.736,36.838v51.425c0,6.205-4.738,10.947-10.938,10.947s-11.127-4.742-11.127-10.947V96.515
			c0-15.318-7.109-23.525-19.514-23.525c-12.034,0-20.609,8.39-20.609,23.891v44.313c0,6.205-4.922,10.947-10.938,10.947
			c-6.201,0-11.128-4.742-11.128-10.947V96.335c0-14.956-7.292-23.345-19.515-23.345c-12.216,0-20.607,9.12-20.607,23.891v44.313
			c0,6.205-4.925,10.947-11.122,10.947c-6.016,0-10.944-4.742-10.944-10.947V64.965z"/>
		<path fill="#189C9B" d="M370.457,134.456c0,7.376-3.502,37.997,66.162,39.9c0,0,6.722-0.239,6.722,4.527
			c0,5.455-6.722,4.971-6.722,4.971c-89.297,0-88.228-36.308-88.228-44.964C348.391,130.232,370.457,127.079,370.457,134.456z"/>
	</g>
	<g>
		<path fill="#189C9B" d="M437.84,52.376c-27.52,0-49.908,22.387-49.908,49.9c0,27.52,22.389,49.907,49.908,49.907
			c27.514,0,49.904-22.388,49.904-49.907C487.745,74.764,465.354,52.376,437.84,52.376z M467.749,106.915
			c-0.08,0-0.146-0.041-0.228-0.05c-2.218,14.408-14.664,25.494-29.681,25.494c-15.017,0-27.465-11.09-29.692-25.494
			c-0.073,0.009-0.142,0.05-0.22,0.05c-2.55,0-4.624-2.076-4.624-4.628c0-2.557,2.074-4.628,4.624-4.628
			c0.077,0,0.146,0.038,0.22,0.045c2.173-14.128,14.184-25.024,28.798-25.458l-0.079-0.039c6.602,0,13.053,0,15.2-7.603
			c0,0,3.701,3.842,1.077,8.188c-0.186,0.252-0.365,0.513-0.579,0.744c-0.7,0.771-1.517,1.451-2.424,2.034
			c-1.827,1.136-3.954,1.882-6.171,2.237c2.246,0.024,4.528-0.325,6.71-1.211c0.48-0.211,0.963-0.455,1.427-0.71
			c8.088,4.393,13.969,12.371,15.414,21.82c0.082-0.007,0.147-0.045,0.228-0.045c2.561,0,4.625,2.072,4.625,4.628
			C472.374,104.839,470.309,106.915,467.749,106.915z"/>
		<g>
			<path fill="#189C9B" d="M420.01,100.987c0.854,1.106,1.783,1.946,2.813,2.483c1.031,0.506,2.103,0.807,3.196,0.778
				c1.105,0.024,2.152-0.272,3.202-0.778c1.023-0.537,1.943-1.377,2.802-2.483c0.057,1.423-0.639,2.858-1.755,3.903
				c-1.09,1.082-2.694,1.649-4.249,1.664c-1.565-0.015-3.155-0.582-4.254-1.672C420.654,103.842,419.962,102.41,420.01,100.987z"/>
			<path fill="#189C9B" d="M443.654,100.987c0.855,1.106,1.779,1.946,2.81,2.483c1.017,0.506,2.141,0.807,3.148,0.787
				c1.194,0.015,2.179-0.289,3.245-0.791c1.029-0.533,1.951-1.373,2.809-2.479c0.054,1.423-0.64,2.858-1.756,3.903
				c-1.073,1.082-2.741,1.649-4.204,1.664c-1.659-0.015-3.183-0.582-4.295-1.664C444.293,103.845,443.597,102.41,443.654,100.987z"
				/>
		</g>
		<path fill="#189C9B" d="M429.168,116.685c1.159,1.02,2.207,1.665,3.274,2.279c1.075,0.55,2.137,0.989,3.274,1.247
			c2.274,0.571,4.594,0.6,7.561,0.288c-1.756,2.486-5.251,3.449-8.304,2.687c-1.527-0.41-2.984-1.201-4.037-2.368
			C429.859,119.705,429.194,118.136,429.168,116.685z"/>
	</g>
	<g>
		<path fill="#189C9B" d="M488.786,45.264h-2.578c-0.485,0-0.864-0.394-0.864-0.864s0.379-0.865,0.864-0.865h7.053
			c0.47,0,0.85,0.395,0.85,0.865s-0.38,0.864-0.85,0.864h-2.594v8.039c0,0.516-0.425,0.925-0.94,0.925s-0.94-0.409-0.94-0.925
			V45.264z"/>
		<path fill="#189C9B" d="M496.003,44.415c0-0.516,0.409-0.94,0.94-0.94h0.197c0.409,0,0.683,0.212,0.864,0.5l3.216,5.036
			l3.23-5.051c0.197-0.318,0.47-0.485,0.849-0.485h0.197c0.531,0,0.94,0.425,0.94,0.94v8.888c0,0.516-0.409,0.925-0.94,0.925
			c-0.5,0-0.925-0.424-0.925-0.925v-6.371l-2.594,3.898c-0.197,0.304-0.439,0.485-0.789,0.485c-0.333,0-0.576-0.182-0.773-0.485
			l-2.578-3.868v6.355c0,0.516-0.409,0.91-0.925,0.91s-0.91-0.394-0.91-0.91V44.415z"/>
	</g>
</g>
<g display="none">
	<g display="inline">
		<defs>
			<rect id="SVGID_1_" x="511.558" y="-49.699" width="490.868" height="694.223"/>
		</defs>
		<clipPath id="SVGID_2_">
			<use xlink:href="#SVGID_1_"  overflow="visible"/>
		</clipPath>
		<rect x="586.343" y="90.766" clip-path="url(#SVGID_2_)" fill="#E4E5E6" width="52.127" height="52.127"/>
		<rect x="525.914" y="90.766" clip-path="url(#SVGID_2_)" fill="#4A4947" width="52.127" height="52.127"/>
		<rect x="586.343" y="150.201" clip-path="url(#SVGID_2_)" fill="#D1D3D4" width="52.127" height="52.127"/>
		<rect x="525.914" y="150.201" clip-path="url(#SVGID_2_)" fill="#007183" width="52.127" height="52.127"/>
		<rect x="586.343" y="208.436" clip-path="url(#SVGID_2_)" fill="#8382A3" width="52.127" height="52.127"/>
		<rect x="525.914" y="208.436" clip-path="url(#SVGID_2_)" fill="#129A9A" width="52.127" height="52.127"/>
		<rect x="586.343" y="267.871" clip-path="url(#SVGID_2_)" fill="#9676B5" width="52.127" height="52.127"/>
		<rect x="525.914" y="267.871" clip-path="url(#SVGID_2_)" fill="#8560A8" width="52.127" height="52.127"/>
		<rect x="586.343" y="326.106" clip-path="url(#SVGID_2_)" fill="#FFE76B" width="52.127" height="52.127"/>
		<rect x="525.914" y="326.106" clip-path="url(#SVGID_2_)" fill="#FFCF01" width="52.127" height="52.127"/>
		<rect x="586.343" y="385.54" clip-path="url(#SVGID_2_)" fill="#E5C93A" width="52.127" height="52.127"/>
		<rect x="525.914" y="385.54" clip-path="url(#SVGID_2_)" fill="#DBA510" width="52.127" height="52.127"/>
		<rect x="586.343" y="443.776" clip-path="url(#SVGID_2_)" fill="#BEE1EB" width="52.127" height="52.127"/>
		<rect x="525.914" y="443.776" clip-path="url(#SVGID_2_)" fill="#7BC6DB" width="52.127" height="52.127"/>
		<rect x="586.343" y="503.211" clip-path="url(#SVGID_2_)" fill="#EAC4A1" width="52.127" height="52.127"/>
		<rect x="525.914" y="503.211" clip-path="url(#SVGID_2_)" fill="#523D33" width="52.127" height="52.127"/>
		<rect x="586.343" y="562.757" clip-path="url(#SVGID_2_)" fill="#F79765" width="52.127" height="52.127"/>
		<rect x="525.914" y="562.757" clip-path="url(#SVGID_2_)" fill="#F47B3D" width="52.127" height="52.127"/>
		<g clip-path="url(#SVGID_2_)">
			<text transform="matrix(1 0 0 1 684.6469 97.6832)" fill="#4A4947" font-family="'GothamRounded-Light'" font-size="9.8952">P</text>
		</g>
		<g clip-path="url(#SVGID_2_)">
			<text transform="matrix(1 0 0 1 690.5746 97.6832)" fill="#4A4947" font-family="'GothamRounded-Light'" font-size="9.8952">AN</text>
		</g>
		<g clip-path="url(#SVGID_2_)">
			<text transform="matrix(1 0 0 1 706.2094 97.6832)" fill="#4A4947" font-family="'GothamRounded-Light'" font-size="9.8952">T</text>
		</g>
		<g clip-path="url(#SVGID_2_)">
			<text transform="matrix(1 0 0 1 712.0766 97.6832)" fill="#4A4947" font-family="'GothamRounded-Light'" font-size="9.8952">ONE: 1</text>
		</g>
		<g clip-path="url(#SVGID_2_)">
			<text transform="matrix(1 0 0 1 743.5932 97.6832)" fill="#4A4947" font-family="'GothamRounded-Light'" font-size="9.8952">6</text>
		</g>
		<g clip-path="url(#SVGID_2_)">
			<text transform="matrix(1 0 0 1 749.8569 97.6832)" fill="#4A4947" font-family="'GothamRounded-Light'" font-size="9.8952">9 - 16 | 1</text>
		</g>
		<g clip-path="url(#SVGID_2_)">
			<text transform="matrix(1 0 0 1 787.933 97.6832)" fill="#4A4947" font-family="'GothamRounded-Light'" font-size="9.8952">7</text>
		</g>
		<g clip-path="url(#SVGID_2_)">
			<text transform="matrix(1 0 0 1 793.603 97.6832)" fill="#4A4947" font-family="'GothamRounded-Light'" font-size="9.8952">9 - 2</text>
		</g>
		<g clip-path="url(#SVGID_2_)">
			<text transform="matrix(1 0 0 1 684.6469 112.526)" fill="#4A4947" font-family="'GothamRounded-Light'" font-size="9.8952">RGB: 73 72 71 | 228 229 230</text>
		</g>
		<g clip-path="url(#SVGID_2_)">
			<defs>
				<rect id="SVGID_3_" x="511.558" y="-49.699" width="490.868" height="694.223"/>
			</defs>
			<clipPath id="SVGID_4_">
				<use xlink:href="#SVGID_3_"  overflow="visible"/>
			</clipPath>
			<path clip-path="url(#SVGID_4_)" fill="#FFFFFF" d="M557.844,176.264c0,3.24-2.626,5.866-5.866,5.866
				c-3.241,0-5.867-2.626-5.867-5.866c0-3.24,2.626-5.866,5.867-5.866C555.217,170.398,557.844,173.024,557.844,176.264"/>
			<path clip-path="url(#SVGID_4_)" fill="#FFFFFF" d="M557.844,234.5c0,3.24-2.626,5.866-5.866,5.866
				c-3.241,0-5.867-2.626-5.867-5.866c0-3.24,2.626-5.866,5.867-5.866C555.217,228.633,557.844,231.26,557.844,234.5"/>
			<path clip-path="url(#SVGID_4_)" fill="#FFFFFF" d="M557.844,293.934c0,3.24-2.626,5.866-5.866,5.866
				c-3.241,0-5.867-2.626-5.867-5.866c0-3.24,2.626-5.866,5.867-5.866C555.217,288.068,557.844,290.694,557.844,293.934"/>
			<path clip-path="url(#SVGID_4_)" fill="#FFFFFF" d="M557.844,352.17c0,3.24-2.626,5.866-5.866,5.866
				c-3.241,0-5.867-2.626-5.867-5.866c0-3.24,2.626-5.866,5.867-5.866C555.217,346.303,557.844,348.93,557.844,352.17"/>
			<path clip-path="url(#SVGID_4_)" fill="#FFFFFF" d="M618.273,469.84c0,3.24-2.626,5.866-5.866,5.866
				c-3.241,0-5.867-2.626-5.867-5.866s2.626-5.866,5.867-5.866C615.647,463.973,618.273,466.6,618.273,469.84"/>
		</g>
		<g clip-path="url(#SVGID_2_)">
			<text transform="matrix(1 0 0 1 525.0893 41.859)" fill="#4A4947" font-family="'GothamRounded-Book'" font-size="37.4266">WEBSITE </text>
		</g>
		<g clip-path="url(#SVGID_2_)">
			<text transform="matrix(1 0 0 1 713.7934 41.859)" fill="#4A4947" font-family="'GothamRounded-Book'" font-size="37.4266">C</text>
		</g>
		<g clip-path="url(#SVGID_2_)">
			<text transform="matrix(1 0 0 1 740.7036 41.859)" fill="#4A4947" font-family="'GothamRounded-Book'" font-size="37.4266">O</text>
		</g>
		<g clip-path="url(#SVGID_2_)">
			<text transform="matrix(1 0 0 1 772.5161 41.859)" fill="#4A4947" font-family="'GothamRounded-Book'" font-size="37.4266">L</text>
		</g>
		<g clip-path="url(#SVGID_2_)">
			<text transform="matrix(1 0 0 1 794.2231 41.859)" fill="#4A4947" font-family="'GothamRounded-Book'" font-size="37.4266">ORS</text>
		</g>
		<g clip-path="url(#SVGID_2_)">
			<defs>
				<rect id="SVGID_5_" x="511.558" y="-49.699" width="490.868" height="694.223"/>
			</defs>
			<clipPath id="SVGID_6_">
				<use xlink:href="#SVGID_5_"  overflow="visible"/>
			</clipPath>
			<circle clip-path="url(#SVGID_6_)" fill="none" stroke="#4A4947" stroke-miterlimit="10" cx="531.898" cy="65.787" r="5.773"/>
		</g>
		<g clip-path="url(#SVGID_2_)">
			<text transform="matrix(1 0 0 1 542.0395 71.5602)" fill="#4A4947" font-family="'GothamRounded-Light'" font-size="15.7125">B</text>
		</g>
		<g clip-path="url(#SVGID_2_)">
			<text transform="matrix(1 0 0 1 553.3842 71.5602)" fill="#4A4947" font-family="'GothamRounded-Light'" font-size="15.7125">r</text>
		</g>
		<g clip-path="url(#SVGID_2_)">
			<text transform="matrix(1 0 0 1 559.2924 71.5602)" fill="#4A4947" font-family="'GothamRounded-Light'" font-size="15.7125">and </text>
		</g>
		<g clip-path="url(#SVGID_2_)">
			<text transform="matrix(1 0 0 1 593.0278 71.5602)" fill="#4A4947" font-family="'GothamRounded-Light'" font-size="15.7125">c</text>
		</g>
		<g clip-path="url(#SVGID_2_)">
			<text transform="matrix(1 0 0 1 601.7787 71.5602)" fill="#4A4947" font-family="'GothamRounded-Light'" font-size="15.7125">olors</text>
		</g>
		<g clip-path="url(#SVGID_2_)">
			<text transform="matrix(1 0 0 1 843.2455 97.6827)" fill="#4A4947" font-family="'GothamRounded-Light'" font-size="9.8952">CMYK: 13 12 16 80 | 0 0 0 11</text>
		</g>
		<g clip-path="url(#SVGID_2_)">
			<text transform="matrix(1 0 0 1 843.2455 112.525)" fill="#4A4947" font-family="'GothamRounded-Light'" font-size="9.8952">HEX: #494847 | #e4e5e6</text>
		</g>
		<g clip-path="url(#SVGID_2_)">
			<text transform="matrix(1 0 0 1 684.6469 157.0543)" fill="#4A4947" font-family="'GothamRounded-Light'" font-size="9.8952">P</text>
		</g>
		<g clip-path="url(#SVGID_2_)">
			<text transform="matrix(1 0 0 1 690.5746 157.0543)" fill="#4A4947" font-family="'GothamRounded-Light'" font-size="9.8952">AN</text>
		</g>
		<g clip-path="url(#SVGID_2_)">
			<text transform="matrix(1 0 0 1 706.2094 157.0543)" fill="#4A4947" font-family="'GothamRounded-Light'" font-size="9.8952">T</text>
		</g>
		<g clip-path="url(#SVGID_2_)">
			<text transform="matrix(1 0 0 1 712.0766 157.0543)" fill="#4A4947" font-family="'GothamRounded-Light'" font-size="9.8952">ONE: 1</text>
		</g>
		<g clip-path="url(#SVGID_2_)">
			<text transform="matrix(1 0 0 1 743.5932 157.0543)"><tspan x="0" y="0" fill="#4A4947" font-family="'GothamRounded-Light'" font-size="9.8952">2</tspan><tspan x="5.749" y="0" fill="#4A4947" font-family="'GothamRounded-Light'" font-size="9.8952">0</tspan></text>
		</g>
		<g clip-path="url(#SVGID_2_)">
			<text transform="matrix(1 0 0 1 756.2787 157.0543)" fill="#4A4947" font-family="'GothamRounded-Light'" font-size="9.8952"> - 8 | 1</text>
		</g>
		<g clip-path="url(#SVGID_2_)">
			<text transform="matrix(1 0 0 1 784.5698 157.0543)" fill="#4A4947" font-family="'GothamRounded-Light'" font-size="9.8952">7</text>
		</g>
		<g clip-path="url(#SVGID_2_)">
			<text transform="matrix(1 0 0 1 790.2387 157.0543)" fill="#4A4947" font-family="'GothamRounded-Light'" font-size="9.8952">9 - 3</text>
		</g>
		<g clip-path="url(#SVGID_2_)">
			<text transform="matrix(1 0 0 1 684.6469 171.8971)" fill="#4A4947" font-family="'GothamRounded-Light'" font-size="9.8952">RGB: 0 113 131 | 209 210 212</text>
		</g>
		<g clip-path="url(#SVGID_2_)">
			<text transform="matrix(1 0 0 1 843.2455 157.0543)" fill="#4A4947" font-family="'GothamRounded-Light'" font-size="9.8952">CMYK: 89 43 39 10 | 0 0 0 20</text>
		</g>
		<g clip-path="url(#SVGID_2_)">
			<text transform="matrix(1 0 0 1 843.2455 171.8961)" fill="#4A4947" font-family="'GothamRounded-Light'" font-size="9.8952">HEX: #007183 | #d1d2d4</text>
		</g>
		<g clip-path="url(#SVGID_2_)">
			<text transform="matrix(1 0 0 1 684.6469 216.4254)" fill="#4A4947" font-family="'GothamRounded-Light'" font-size="9.8952">P</text>
		</g>
		<g clip-path="url(#SVGID_2_)">
			<text transform="matrix(1 0 0 1 690.5746 216.4254)" fill="#4A4947" font-family="'GothamRounded-Light'" font-size="9.8952">AN</text>
		</g>
		<g clip-path="url(#SVGID_2_)">
			<text transform="matrix(1 0 0 1 706.2094 216.4254)" fill="#4A4947" font-family="'GothamRounded-Light'" font-size="9.8952">T</text>
		</g>
		<g clip-path="url(#SVGID_2_)">
			<text transform="matrix(1 0 0 1 712.0766 216.4254)" fill="#4A4947" font-family="'GothamRounded-Light'" font-size="9.8952">ONE: 125 - 6 | 101 - 11</text>
		</g>
		<g clip-path="url(#SVGID_2_)">
			<text transform="matrix(1 0 0 1 684.6469 231.2691)" fill="#4A4947" font-family="'GothamRounded-Light'" font-size="9.8952">RGB: 17 154 153 | 131 130 162</text>
		</g>
		<g clip-path="url(#SVGID_2_)">
			<text transform="matrix(1 0 0 1 843.2455 216.4254)" fill="#4A4947" font-family="'GothamRounded-Light'" font-size="9.8952">CMYK: 80 19 42 1 | 53 47 20 1</text>
		</g>
		<g clip-path="url(#SVGID_2_)">
			<text transform="matrix(1 0 0 1 843.2455 231.2682)" fill="#4A4947" font-family="'GothamRounded-Light'" font-size="9.8952">HEX: #119a99 | #8382a2</text>
		</g>
		<g clip-path="url(#SVGID_2_)">
			<text transform="matrix(1 0 0 1 684.6469 275.7965)" fill="#4A4947" font-family="'GothamRounded-Light'" font-size="9.8952">P</text>
		</g>
		<g clip-path="url(#SVGID_2_)">
			<text transform="matrix(1 0 0 1 690.5746 275.7965)" fill="#4A4947" font-family="'GothamRounded-Light'" font-size="9.8952">AN</text>
		</g>
		<g clip-path="url(#SVGID_2_)">
			<text transform="matrix(1 0 0 1 706.2094 275.7965)" fill="#4A4947" font-family="'GothamRounded-Light'" font-size="9.8952">T</text>
		</g>
		<g clip-path="url(#SVGID_2_)">
			<text transform="matrix(1 0 0 1 712.0766 275.7965)" fill="#4A4947" font-family="'GothamRounded-Light'" font-size="9.8952">ONE: 93 - 6 | 93 - 5</text>
		</g>
		<g clip-path="url(#SVGID_2_)">
			<text transform="matrix(1 0 0 1 684.6469 290.6402)" fill="#4A4947" font-family="'GothamRounded-Light'" font-size="9.8952">RGB: 133 95 168 | 150 118 180</text>
		</g>
		<g clip-path="url(#SVGID_2_)">
			<text transform="matrix(1 0 0 1 843.2455 275.7965)" fill="#4A4947" font-family="'GothamRounded-Light'" font-size="9.8952">CMYK: 54 72 0 0 | 44 59 0 0</text>
		</g>
		<g clip-path="url(#SVGID_2_)">
			<text transform="matrix(1 0 0 1 843.2455 290.6393)" fill="#4A4947" font-family="'GothamRounded-Light'" font-size="9.8952">HEX: #855fa8 | #9676b4</text>
		</g>
		<g clip-path="url(#SVGID_2_)">
			<text transform="matrix(1 0 0 1 684.6469 335.1676)" fill="#4A4947" font-family="'GothamRounded-Light'" font-size="9.8952">P</text>
		</g>
		<g clip-path="url(#SVGID_2_)">
			<text transform="matrix(1 0 0 1 690.5746 335.1676)" fill="#4A4947" font-family="'GothamRounded-Light'" font-size="9.8952">AN</text>
		</g>
		<g clip-path="url(#SVGID_2_)">
			<text transform="matrix(1 0 0 1 706.2094 335.1676)" fill="#4A4947" font-family="'GothamRounded-Light'" font-size="9.8952">T</text>
		</g>
		<g clip-path="url(#SVGID_2_)">
			<text transform="matrix(1 0 0 1 712.0766 335.1676)" fill="#4A4947" font-family="'GothamRounded-Light'" font-size="9.8952">ONE: 7 - 8 | 4 - 6</text>
		</g>
		<g clip-path="url(#SVGID_2_)">
			<text transform="matrix(1 0 0 1 684.6469 350.0113)" fill="#4A4947" font-family="'GothamRounded-Light'" font-size="9.8952">RGB: 255 206 0 | 255 231 107</text>
		</g>
		<g clip-path="url(#SVGID_2_)">
			<text transform="matrix(1 0 0 1 843.2455 335.1676)" fill="#4A4947" font-family="'GothamRounded-Light'" font-size="9.8952">CMYK: 0 18 100 0 | 0 6 70 0</text>
		</g>
		<path clip-path="url(#SVGID_2_)" fill="#4A4947" d="M844.275,343.305c0-0.138,0.119-0.257,0.257-0.257
			c0.138,0,0.257,0.119,0.257,0.257v2.987h4.431v-2.987c0-0.138,0.119-0.257,0.257-0.257c0.138,0,0.257,0.119,0.257,0.257v6.488
			c0,0.138-0.119,0.257-0.257,0.257c-0.138,0-0.257-0.119-0.257-0.257v-3.026h-4.431v3.026c0,0.138-0.119,0.257-0.257,0.257
			c-0.138,0-0.257-0.119-0.257-0.257V343.305z M851.795,349.753v-6.409c0-0.138,0.119-0.257,0.257-0.257h4.47
			c0.129,0,0.237,0.109,0.237,0.237s-0.109,0.237-0.237,0.237h-4.213v2.72h3.768c0.129,0,0.237,0.109,0.237,0.237
			s-0.109,0.237-0.237,0.237h-3.768v2.779h4.262c0.129,0,0.237,0.109,0.237,0.237s-0.109,0.237-0.237,0.237h-4.52
			C851.914,350.01,851.795,349.892,851.795,349.753z M858.187,349.645l2.472-3.165l-2.354-2.997
			c-0.049-0.069-0.089-0.129-0.089-0.198c0-0.119,0.119-0.237,0.247-0.237c0.099,0,0.158,0.049,0.218,0.129l2.294,2.957l2.265-2.927
			c0.069-0.089,0.138-0.158,0.247-0.158c0.129,0,0.227,0.109,0.227,0.237c0,0.059-0.03,0.119-0.069,0.168l-2.364,3.016l2.443,3.145
			c0.059,0.069,0.089,0.129,0.089,0.198c0,0.119-0.119,0.237-0.247,0.237c-0.099,0-0.158-0.049-0.218-0.129l-2.393-3.105
			l-2.364,3.076c-0.069,0.089-0.138,0.158-0.247,0.158c-0.129,0-0.227-0.109-0.227-0.237
			C858.118,349.753,858.148,349.694,858.187,349.645z M865.727,344.927c0.188,0,0.326,0.138,0.326,0.326v0.267
			c0,0.188-0.138,0.326-0.326,0.326c-0.188,0-0.326-0.138-0.326-0.326v-0.267C865.401,345.066,865.539,344.927,865.727,344.927z
			 M865.727,349.13c0.188,0,0.326,0.138,0.326,0.326v0.267c0,0.188-0.138,0.326-0.326,0.326c-0.188,0-0.326-0.138-0.326-0.326
			v-0.267C865.401,349.269,865.539,349.13,865.727,349.13z M871.565,348.161h-0.999c-0.129,0-0.237-0.099-0.237-0.227
			c0-0.129,0.109-0.237,0.237-0.237h1.078l0.406-2.334h-1.088c-0.129,0-0.237-0.099-0.237-0.227s0.109-0.237,0.237-0.237h1.167
			l0.277-1.632c0.02-0.129,0.119-0.218,0.247-0.218c0.168,0,0.237,0.148,0.218,0.287l-0.267,1.563h2.047l0.277-1.632
			c0.02-0.129,0.119-0.218,0.247-0.218c0.168,0,0.237,0.148,0.218,0.287l-0.267,1.563h0.989c0.129,0,0.237,0.099,0.237,0.227
			s-0.109,0.237-0.237,0.237h-1.068l-0.406,2.334h1.078c0.129,0,0.237,0.099,0.237,0.227s-0.109,0.237-0.237,0.237h-1.157
			l-0.287,1.671c-0.02,0.129-0.119,0.218-0.247,0.218c-0.168,0-0.237-0.148-0.218-0.287l0.277-1.602h-2.047l-0.287,1.671
			c-0.02,0.129-0.119,0.218-0.247,0.218c-0.168,0-0.237-0.148-0.218-0.287L871.565,348.161z M874.166,347.696l0.405-2.334h-2.047
			l-0.405,2.334H874.166z M878.027,345.412h-0.544c-0.129,0-0.227-0.099-0.227-0.227c0-0.119,0.109-0.218,0.227-0.218h0.544v-0.494
			c0-0.574,0.158-1.029,0.445-1.315c0.257-0.257,0.613-0.396,1.058-0.396c0.247,0,0.435,0.03,0.603,0.069
			c0.109,0.02,0.188,0.119,0.188,0.227c0,0.138-0.129,0.237-0.277,0.208c-0.158-0.03-0.326-0.059-0.514-0.059
			c-0.692,0-1.019,0.415-1.019,1.276v0.485h1.572c0.129,0,0.227,0.099,0.227,0.227c0,0.119-0.109,0.218-0.227,0.218h-1.572v4.391
			c0,0.138-0.099,0.247-0.237,0.247c-0.138,0-0.247-0.109-0.247-0.247V345.412z M881.607,345.412h-0.544
			c-0.129,0-0.227-0.099-0.227-0.227c0-0.119,0.109-0.218,0.227-0.218h0.544v-0.494c0-0.574,0.158-1.029,0.445-1.315
			c0.257-0.257,0.613-0.396,1.058-0.396c0.247,0,0.435,0.03,0.603,0.069c0.109,0.02,0.188,0.119,0.188,0.227
			c0,0.138-0.129,0.237-0.277,0.208c-0.158-0.03-0.326-0.059-0.514-0.059c-0.692,0-1.019,0.415-1.019,1.276v0.485h1.572
			c0.129,0,0.227,0.099,0.227,0.227c0,0.119-0.109,0.218-0.227,0.218h-1.572v4.391c0,0.138-0.099,0.247-0.237,0.247
			c-0.138,0-0.247-0.109-0.247-0.247V345.412z M884.548,347.508v-0.02c0-1.414,1.127-2.641,2.571-2.641
			c0.87,0,1.444,0.376,1.899,0.801c0.04,0.04,0.069,0.109,0.069,0.178c0,0.138-0.109,0.247-0.247,0.247
			c-0.059,0-0.129-0.02-0.168-0.059c-0.406-0.386-0.88-0.712-1.563-0.712c-1.147,0-2.037,0.959-2.037,2.166v0.02
			c0,1.216,0.92,2.186,2.077,2.186c0.653,0,1.177-0.316,1.582-0.722c0.04-0.04,0.089-0.079,0.158-0.079
			c0.119,0,0.237,0.119,0.237,0.237c0,0.049-0.02,0.109-0.059,0.148c-0.504,0.514-1.088,0.87-1.948,0.87
			C885.666,350.129,884.548,348.923,884.548,347.508z M892.671,350.129c-1.325,0-2.472-1.058-2.472-2.631v-0.02
			c0-1.464,1.029-2.631,2.393-2.631c1.414,0,2.314,1.167,2.314,2.611c0,0.119-0.119,0.227-0.237,0.227h-3.956
			c0.089,1.256,0.989,1.988,1.978,1.988c0.722,0,1.226-0.297,1.632-0.692c0.04-0.04,0.089-0.069,0.158-0.069
			c0.129,0,0.237,0.099,0.237,0.227c0,0.049-0.02,0.109-0.079,0.168C894.144,349.803,893.581,350.129,892.671,350.129z
			 M894.382,347.251c-0.069-1.019-0.653-1.958-1.81-1.958c-0.999,0-1.77,0.841-1.859,1.958H894.382z M896.046,346.569v-0.02
			c0-1.909,1.118-3.58,2.878-3.58s2.858,1.652,2.858,3.56v0.02c0,1.909-1.118,3.58-2.878,3.58S896.046,348.478,896.046,346.569z
			 M901.248,346.569v-0.02c0-1.612-0.91-3.115-2.344-3.115s-2.324,1.483-2.324,3.095v0.02c0,1.602,0.91,3.115,2.344,3.115
			S901.248,348.171,901.248,346.569z M903.072,346.569v-0.02c0-1.909,1.118-3.58,2.878-3.58s2.858,1.652,2.858,3.56v0.02
			c0,1.909-1.118,3.58-2.878,3.58S903.072,348.478,903.072,346.569z M908.274,346.569v-0.02c0-1.612-0.91-3.115-2.344-3.115
			s-2.324,1.483-2.324,3.095v0.02c0,1.602,0.91,3.115,2.344,3.115S908.274,348.171,908.274,346.569z M913.62,342.296
			c0-0.119,0.099-0.218,0.218-0.218c0.119,0,0.218,0.099,0.218,0.218v8.802c0,0.119-0.099,0.218-0.218,0.218
			c-0.119,0-0.218-0.099-0.218-0.218V342.296z M919.903,348.161h-0.999c-0.129,0-0.237-0.099-0.237-0.227
			c0-0.129,0.109-0.237,0.237-0.237h1.078l0.405-2.334H919.3c-0.129,0-0.237-0.099-0.237-0.227s0.109-0.237,0.237-0.237h1.167
			l0.277-1.632c0.02-0.129,0.119-0.218,0.247-0.218c0.168,0,0.237,0.148,0.218,0.287l-0.267,1.563h2.047l0.277-1.632
			c0.02-0.129,0.119-0.218,0.247-0.218c0.168,0,0.237,0.148,0.218,0.287l-0.267,1.563h0.989c0.129,0,0.237,0.099,0.237,0.227
			s-0.109,0.237-0.237,0.237h-1.068l-0.406,2.334h1.078c0.129,0,0.237,0.099,0.237,0.227s-0.109,0.237-0.237,0.237H922.9
			l-0.287,1.671c-0.02,0.129-0.119,0.218-0.247,0.218c-0.168,0-0.237-0.148-0.218-0.287l0.277-1.602h-2.047l-0.287,1.671
			c-0.02,0.129-0.119,0.218-0.247,0.218c-0.168,0-0.237-0.148-0.218-0.287L919.903,348.161z M922.504,347.696l0.405-2.334h-2.047
			l-0.406,2.334H922.504z M926.365,345.412h-0.544c-0.129,0-0.227-0.099-0.227-0.227c0-0.119,0.109-0.218,0.227-0.218h0.544v-0.494
			c0-0.574,0.158-1.029,0.445-1.315c0.257-0.257,0.613-0.396,1.058-0.396c0.247,0,0.435,0.03,0.603,0.069
			c0.109,0.02,0.188,0.119,0.188,0.227c0,0.138-0.129,0.237-0.277,0.208c-0.158-0.03-0.326-0.059-0.514-0.059
			c-0.692,0-1.019,0.415-1.019,1.276v0.485h1.573c0.129,0,0.227,0.099,0.227,0.227c0,0.119-0.109,0.218-0.227,0.218h-1.573v4.391
			c0,0.138-0.099,0.247-0.237,0.247c-0.138,0-0.247-0.109-0.247-0.247V345.412z M929.945,345.412h-0.544
			c-0.129,0-0.227-0.099-0.227-0.227c0-0.119,0.109-0.218,0.227-0.218h0.544v-0.494c0-0.574,0.158-1.029,0.445-1.315
			c0.257-0.257,0.613-0.396,1.058-0.396c0.247,0,0.435,0.03,0.603,0.069c0.109,0.02,0.188,0.119,0.188,0.227
			c0,0.138-0.129,0.237-0.277,0.208c-0.158-0.03-0.326-0.059-0.514-0.059c-0.692,0-1.019,0.415-1.019,1.276v0.485h1.572
			c0.129,0,0.227,0.099,0.227,0.227c0,0.119-0.109,0.218-0.227,0.218h-1.572v4.391c0,0.138-0.099,0.247-0.237,0.247
			c-0.138,0-0.247-0.109-0.247-0.247V345.412z M935.359,350.129c-1.325,0-2.472-1.058-2.472-2.631v-0.02
			c0-1.464,1.029-2.631,2.393-2.631c1.414,0,2.314,1.167,2.314,2.611c0,0.119-0.119,0.227-0.237,0.227h-3.956
			c0.089,1.256,0.989,1.988,1.978,1.988c0.722,0,1.226-0.297,1.632-0.692c0.04-0.04,0.089-0.069,0.158-0.069
			c0.129,0,0.237,0.099,0.237,0.227c0,0.049-0.02,0.109-0.079,0.168C936.832,349.803,936.269,350.129,935.359,350.129z
			 M937.07,347.251c-0.069-1.019-0.653-1.958-1.81-1.958c-0.999,0-1.77,0.841-1.859,1.958H937.07z M939.802,349.664l2.977-6.082
			h-3.808c-0.138,0-0.247-0.109-0.247-0.247s0.109-0.247,0.247-0.247h4.174c0.138,0,0.247,0.089,0.247,0.227
			c0,0.059-0.03,0.138-0.059,0.198l-3.066,6.359c-0.04,0.089-0.129,0.178-0.247,0.178c-0.138,0-0.257-0.099-0.257-0.237
			C939.763,349.773,939.783,349.704,939.802,349.664z M945.413,349.437c-0.574-0.574-0.88-1.266-0.88-2.7v-0.02
			c0-2.087,1.098-3.748,2.819-3.748c0.732,0,1.296,0.247,1.849,0.682c0.069,0.059,0.109,0.119,0.109,0.208
			c0,0.138-0.119,0.257-0.257,0.257c-0.059,0-0.109-0.02-0.158-0.059c-0.494-0.405-0.979-0.623-1.582-0.623
			c-1.404,0-2.314,1.474-2.265,3.59c0.396-0.672,1.038-1.286,2.166-1.286c1.256,0,2.383,0.86,2.383,2.097v0.02
			c0,1.305-1.058,2.275-2.423,2.275C946.462,350.129,945.829,349.852,945.413,349.437z M949.063,347.874v-0.02
			c0-0.949-0.781-1.661-1.879-1.661c-1.137,0-1.929,0.86-1.929,1.711v0.02c0,0.989,0.841,1.741,1.958,1.741
			C948.331,349.664,949.063,348.853,949.063,347.874z M951.173,342.999c0-0.148,0.099-0.247,0.237-0.247
			c0.138,0,0.247,0.099,0.247,0.247v3.095c0.435-0.663,1.078-1.246,2.077-1.246c1.216,0,2.453,0.979,2.453,2.621v0.02
			c0,1.642-1.236,2.641-2.453,2.641c-1.009,0-1.661-0.574-2.077-1.207v0.88c0,0.138-0.099,0.247-0.237,0.247
			c-0.138,0-0.247-0.109-0.247-0.247V342.999z M955.663,347.508v-0.02c0-1.325-0.92-2.176-1.978-2.176
			c-1.048,0-2.057,0.88-2.057,2.166v0.02c0,1.296,1.009,2.166,2.057,2.166C954.782,349.664,955.663,348.863,955.663,347.508z"/>
		<g clip-path="url(#SVGID_2_)">
			<text transform="matrix(1 0 0 1 684.6469 394.5387)" fill="#4A4947" font-family="'GothamRounded-Light'" font-size="9.8952">P</text>
		</g>
		<g clip-path="url(#SVGID_2_)">
			<text transform="matrix(1 0 0 1 690.5746 394.5387)" fill="#4A4947" font-family="'GothamRounded-Light'" font-size="9.8952">AN</text>
		</g>
		<g clip-path="url(#SVGID_2_)">
			<text transform="matrix(1 0 0 1 706.2094 394.5387)" fill="#4A4947" font-family="'GothamRounded-Light'" font-size="9.8952">T</text>
		</g>
		<g clip-path="url(#SVGID_2_)">
			<text transform="matrix(1 0 0 1 712.0766 394.5387)" fill="#4A4947" font-family="'GothamRounded-Light'" font-size="9.8952">ONE: 10 - 16 | 4 - 15</text>
		</g>
		<g clip-path="url(#SVGID_2_)">
			<text transform="matrix(1 0 0 1 684.6469 409.3824)" fill="#4A4947" font-family="'GothamRounded-Light'" font-size="9.8952">RGB: 219 165 15 | 228 201 58</text>
		</g>
		<g clip-path="url(#SVGID_2_)">
			<text transform="matrix(1 0 0 1 843.2455 394.5387)" fill="#4A4947" font-family="'GothamRounded-Light'" font-size="9.8952">CMYK: 0 27 100 15 | 0 7 85 13</text>
		</g>
		<g clip-path="url(#SVGID_2_)">
			<text transform="matrix(1 0 0 1 843.2455 409.3824)" fill="#4A4947" font-family="'GothamRounded-Light'" font-size="9.8952">HEX: #dba50f | #e4c93a</text>
		</g>
		<g clip-path="url(#SVGID_2_)">
			<text transform="matrix(1 0 0 1 684.6469 453.9107)" fill="#4A4947" font-family="'GothamRounded-Light'" font-size="9.8952">P</text>
		</g>
		<g clip-path="url(#SVGID_2_)">
			<text transform="matrix(1 0 0 1 690.5746 453.9107)" fill="#4A4947" font-family="'GothamRounded-Light'" font-size="9.8952">AN</text>
		</g>
		<g clip-path="url(#SVGID_2_)">
			<text transform="matrix(1 0 0 1 706.2094 453.9107)" fill="#4A4947" font-family="'GothamRounded-Light'" font-size="9.8952">T</text>
		</g>
		<g clip-path="url(#SVGID_2_)">
			<text transform="matrix(1 0 0 1 712.0766 453.9107)" fill="#4A4947" font-family="'GothamRounded-Light'" font-size="9.8952">ONE: 1</text>
		</g>
		<g clip-path="url(#SVGID_2_)">
			<text transform="matrix(1 0 0 1 743.5932 453.9107)"><tspan x="0" y="0" fill="#4A4947" font-family="'GothamRounded-Light'" font-size="9.8952">18 - 1</tspan><tspan x="22.362" y="0" fill="#4A4947" font-family="'GothamRounded-Light'" font-size="9.8952">2</tspan><tspan x="28.111" y="0" fill="#4A4947" font-family="'GothamRounded-Light'" font-size="9.8952"> </tspan><tspan x="31.001" y="0" fill="#4A4947" font-family="'GothamRounded-Light'" font-size="9.8952">|</tspan><tspan x="33.742" y="0" fill="#4A4947" font-family="'GothamRounded-Light'" font-size="9.8952"> 118 - 1</tspan><tspan x="62.229" y="0" fill="#4A4947" font-family="'GothamRounded-Light'" font-size="9.8952">0</tspan></text>
		</g>
		<g clip-path="url(#SVGID_2_)">
			<text transform="matrix(1 0 0 1 684.6469 468.7535)" fill="#4A4947" font-family="'GothamRounded-Light'" font-size="9.8952">RGB: 123 198 218 | 190 224 234</text>
		</g>
		<g clip-path="url(#SVGID_2_)">
			<text transform="matrix(1 0 0 1 843.2455 453.9107)" fill="#4A4947" font-family="'GothamRounded-Light'" font-size="9.8952">CMYK: 45 0 7 6 | 21 0 3 3</text>
		</g>
		<g clip-path="url(#SVGID_2_)">
			<text transform="matrix(1 0 0 1 843.2455 468.7535)" fill="#4A4947" font-family="'GothamRounded-Light'" font-size="9.8952">HEX: #7bc6da | #bee0ea</text>
		</g>
		<g clip-path="url(#SVGID_2_)">
			<text transform="matrix(1 0 0 1 684.6469 513.2818)" fill="#4A4947" font-family="'GothamRounded-Light'" font-size="9.8952">P</text>
		</g>
		<g clip-path="url(#SVGID_2_)">
			<text transform="matrix(1 0 0 1 690.5746 513.2818)" fill="#4A4947" font-family="'GothamRounded-Light'" font-size="9.8952">AN</text>
		</g>
		<g clip-path="url(#SVGID_2_)">
			<text transform="matrix(1 0 0 1 706.2094 513.2818)" fill="#4A4947" font-family="'GothamRounded-Light'" font-size="9.8952">T</text>
		</g>
		<g clip-path="url(#SVGID_2_)">
			<text transform="matrix(1 0 0 1 712.0766 513.2818)" fill="#4A4947" font-family="'GothamRounded-Light'" font-size="9.8952">ONE: 33 - 16 | 25 - 1</text>
		</g>
		<g clip-path="url(#SVGID_2_)">
			<text transform="matrix(1 0 0 1 684.6469 528.1246)" fill="#4A4947" font-family="'GothamRounded-Light'" font-size="9.8952">RGB: 82 61 50 | 233 195 161</text>
		</g>
		<g clip-path="url(#SVGID_2_)">
			<text transform="matrix(1 0 0 1 843.2455 513.2818)" fill="#4A4947" font-family="'GothamRounded-Light'" font-size="9.8952">CMYK: 40 55 61 60 | 0 19 32 8</text>
		</g>
		<g clip-path="url(#SVGID_2_)">
			<text transform="matrix(1 0 0 1 843.2455 528.1246)" fill="#4A4947" font-family="'GothamRounded-Light'" font-size="9.8952">HEX: #523d32 | #e9c3a1</text>
		</g>
		<g clip-path="url(#SVGID_2_)">
			<text transform="matrix(1 0 0 1 684.6469 572.6529)" fill="#4A4947" font-family="'GothamRounded-Light'" font-size="9.8952">P</text>
		</g>
		<g clip-path="url(#SVGID_2_)">
			<text transform="matrix(1 0 0 1 690.5746 572.6529)" fill="#4A4947" font-family="'GothamRounded-Light'" font-size="9.8952">AN</text>
		</g>
		<g clip-path="url(#SVGID_2_)">
			<text transform="matrix(1 0 0 1 706.2094 572.6529)" fill="#4A4947" font-family="'GothamRounded-Light'" font-size="9.8952">T</text>
		</g>
		<g clip-path="url(#SVGID_2_)">
			<text transform="matrix(1 0 0 1 712.0766 572.6529)" fill="#4A4947" font-family="'GothamRounded-Light'" font-size="9.8952">ONE: 34 - 7 | 34 - 5</text>
		</g>
		<g clip-path="url(#SVGID_2_)">
			<text transform="matrix(1 0 0 1 684.6469 587.4957)" fill="#4A4947" font-family="'GothamRounded-Light'" font-size="9.8952">RGB: 244 123 60 | 247 151 101</text>
		</g>
		<g clip-path="url(#SVGID_2_)">
			<text transform="matrix(1 0 0 1 843.2455 572.6529)" fill="#4A4947" font-family="'GothamRounded-Light'" font-size="9.8952">CMYK: 0 64 84 0 | 0 49 64 0</text>
		</g>
		<g clip-path="url(#SVGID_2_)">
			<text transform="matrix(1 0 0 1 843.2455 587.4957)" fill="#4A4947" font-family="'GothamRounded-Light'" font-size="9.8952">HEX: #f47b3c | #f79765</text>
		</g>
	</g>
</g>
</svg>
